<svg width="154" height="44" viewBox="0 0 154 44" fill="none" xmlns="http://www.w3.org/2000/svg">
<path d="M20.9985 2.63403H14.896L15.7917 8.6155L20.9985 2.63403Z" fill="#300C68"/>
<path d="M0.5 22.6308L4.73539 5.30852L2.70233 0.458252H11.5121C15.5782 0.458252 17.6113 2.19039 17.9498 4.9619C18.2888 7.73341 16.9333 9.46555 15.5777 10.1588C18.2883 10.1588 20.9989 11.8909 20.9989 15.7018C20.9989 20.8987 16.7377 22.6308 13.1408 22.6308H0.5Z" fill="url(#paint0_linear_902_1512)"/>
<path d="M15.2744 5.45224C15.343 4.88251 14.9468 4.36377 14.3894 4.29361C13.8321 4.22344 13.3247 4.62842 13.2561 5.19815C13.1875 5.76788 13.5837 6.28662 14.141 6.35678C14.6983 6.42695 15.2058 6.02197 15.2744 5.45224Z" fill="#300C68"/>
<path d="M101.274 2.63232H95.1711L96.0668 8.61379L101.274 2.63232Z" fill="#300C68"/>
<path d="M80.7749 22.6289L85.0103 5.30657L82.9772 0.456299H91.787C95.8531 0.456299 97.8862 2.18843 98.2247 4.95995C98.5632 7.73146 97.2082 9.4636 95.8526 10.1568C98.5632 10.1568 101.274 11.889 101.274 15.6999C101.274 20.8967 97.0126 22.6289 93.4157 22.6289H80.7749Z" fill="url(#paint1_linear_902_1512)"/>
<path d="M95.5564 5.45224C95.625 4.88251 95.2288 4.36377 94.6714 4.29361C94.1141 4.22344 93.6066 4.62842 93.538 5.19815C93.4694 5.76788 93.8656 6.28662 94.423 6.35678C94.9803 6.42695 95.4878 6.02197 95.5564 5.45224Z" fill="#300C68"/>
<path d="M114.326 14.9858C114.326 16.2958 114.002 17.3246 113.364 18.0443C112.724 18.7649 111.934 19.1154 110.948 19.1154C109.91 19.1154 109.178 18.8111 108.711 18.1852C108.231 17.5453 107.988 16.5924 107.988 15.354V6.84961H103.62V15.7218C103.62 18.0722 104.153 19.8889 105.203 21.1221C106.264 22.3677 107.782 22.9989 109.718 22.9989C110.923 22.9989 111.996 22.7172 112.905 22.161C113.574 21.7523 114.133 21.2336 114.573 20.6134L114.808 22.6306H118.724V6.84961H114.326V14.9858Z" fill="#300C68"/>
<path d="M124.441 0C123.704 0 123.085 0.227394 122.604 0.675451C122.116 1.13024 121.868 1.71867 121.868 2.42441C121.868 3.12919 122.115 3.72147 122.602 4.18635C123.083 4.64595 123.702 4.87863 124.441 4.87863C125.18 4.87863 125.8 4.64547 126.281 4.18635C126.767 3.72195 127.014 3.12919 127.014 2.42441C127.014 1.71867 126.766 1.12976 126.278 0.675451C125.797 0.227394 125.179 0 124.441 0Z" fill="#300C68"/>
<path d="M126.639 6.84961H122.241V22.6306H126.639V6.84961Z" fill="#300C68"/>
<path d="M134.519 0.458252H130.121V22.6308H134.519V0.458252Z" fill="#300C68"/>
<path d="M27.9051 6.84961H23.5071V22.6306H27.9051V6.84961Z" fill="#300C68"/>
<path d="M25.7073 0C24.9696 0 24.3518 0.227394 23.8704 0.675451C23.3818 1.13024 23.1345 1.71867 23.1345 2.42441C23.1345 3.12871 23.3814 3.72147 23.868 4.18587C24.3495 4.64547 24.9682 4.87815 25.7073 4.87815C26.4465 4.87815 27.0652 4.64499 27.5467 4.18587C28.0333 3.72147 28.2802 3.12871 28.2802 2.42441C28.2802 1.71867 28.0324 1.13024 27.5443 0.675451C27.0629 0.227394 26.4451 0 25.7073 0Z" fill="#300C68"/>
<path d="M35.0394 8.5939L34.7639 6.84927H31.0283V22.6303H35.4264V15.4143C35.4264 14.3052 35.6004 13.435 35.9436 12.8283C36.284 12.2264 36.7438 11.8154 37.3485 11.5717C37.9734 11.3202 38.6956 11.1928 39.4953 11.1928H40.5862V6.34448H40.3064C37.8445 6.34448 36.0766 7.10022 35.0394 8.5939Z" fill="#300C68"/>
<path d="M54.0303 0.458252V8.40406C53.57 7.89446 53.0227 7.47669 52.3959 7.15603C51.5209 6.70846 50.4903 6.48203 49.3318 6.48203C47.8864 6.48203 46.576 6.84162 45.4373 7.55121C44.2999 8.25983 43.3887 9.24488 42.7281 10.4794C42.0689 11.7111 41.7341 13.1346 41.7341 14.7105C41.7341 16.2859 42.0684 17.7142 42.7276 18.956C43.3882 20.2016 44.299 21.1968 45.4354 21.9145C46.5751 22.6347 47.8855 23 49.3313 23C50.6375 23 51.7222 22.7275 52.5549 22.189C53.1764 21.7871 53.711 21.3299 54.1511 20.8247L54.5 22.6318H58.4284V0.458252H54.0303ZM53.8549 14.7403C53.8549 15.9643 53.4882 16.9777 52.765 17.7527C52.0348 18.5349 51.1199 18.9151 49.9679 18.9151C48.8353 18.9151 47.925 18.5301 47.1854 17.7378C46.442 16.9421 46.0809 15.9518 46.0809 14.7105C46.0809 13.4707 46.4416 12.4914 47.1831 11.7154C47.9226 10.9419 48.8339 10.5655 49.9679 10.5655C51.1199 10.5655 52.0348 10.9458 52.765 11.7279C53.4882 12.5034 53.8549 13.5168 53.8549 14.7403Z" fill="#300C68"/>
<path d="M149.102 8.40406C148.642 7.89446 148.094 7.47669 147.467 7.15603C146.592 6.70846 145.562 6.48203 144.403 6.48203C142.958 6.48203 141.648 6.84162 140.509 7.55121C139.371 8.25983 138.46 9.24488 137.8 10.4794C137.14 11.7111 136.806 13.1346 136.806 14.7105C136.806 16.2859 137.14 17.7142 137.799 18.956C138.46 20.2016 139.37 21.1968 140.507 21.9145C141.647 22.6347 142.957 23 144.403 23C145.709 23 146.794 22.7275 147.626 22.189C148.248 21.7871 148.783 21.3299 149.223 20.8247L149.572 22.6318H153.5V0.458252H149.102V8.40406V8.40406ZM147.837 11.7279C148.56 12.5029 148.926 13.5168 148.926 14.7403C148.926 15.9643 148.56 16.9777 147.837 17.7527C147.106 18.5349 146.191 18.9151 145.039 18.9151C143.907 18.9151 142.997 18.5301 142.257 17.7378C141.514 16.9421 141.152 15.9518 141.152 14.7105C141.152 13.4711 141.513 12.4914 142.255 11.7154C142.995 10.9419 143.906 10.5655 145.039 10.5655C146.191 10.5655 147.106 10.9458 147.837 11.7279Z" fill="#300C68"/>
<path d="M73.2046 15.018C72.6577 14.4055 71.9224 13.9387 71.0182 13.6305C70.1559 13.3368 69.1996 13.0656 68.175 12.8238C67.2572 12.6089 66.5148 12.3724 65.9685 12.1219C65.3098 11.8205 65.3098 11.4864 65.3098 11.3763C65.3098 11.0633 65.4485 10.8157 65.7461 10.597C66.0705 10.3595 66.5553 10.2388 67.1881 10.2388C68.8455 10.2388 69.192 11.0292 69.3086 11.6239L69.3618 11.895H73.5755L73.5233 11.5104C73.3155 9.98212 72.6544 8.76342 71.5589 7.88798C70.4733 7.02119 69.0129 6.58179 67.2178 6.58179C65.2801 6.58179 63.7464 7.06494 62.6589 8.01826C61.5563 8.98457 60.9973 10.1956 60.9973 11.6171C60.9973 12.407 61.1853 13.0849 61.5568 13.6315C61.9174 14.1637 62.3951 14.6031 62.9762 14.9377C63.5344 15.2598 64.1564 15.528 64.8245 15.7347C65.4809 15.9386 66.1335 16.1126 66.7636 16.2535C67.7223 16.4698 68.4769 16.6919 69.0063 16.914C69.429 17.0919 69.626 17.4087 69.626 17.9111C69.626 18.2539 69.4751 18.5543 69.1648 18.8312C68.846 19.1154 68.31 19.2596 67.5709 19.2596C66.8247 19.2596 66.2139 19.0759 65.7555 18.713C65.2957 18.3495 65.0225 17.927 64.92 17.4212L64.8654 17.152H60.425L60.4692 17.5299C60.5938 18.5918 60.9738 19.5399 61.5982 20.349C62.2188 21.1533 63.0548 21.7898 64.0831 22.2417C65.1019 22.6893 66.2948 22.9166 67.6296 22.9166C68.9269 22.9166 70.0722 22.6941 71.0333 22.2551C72.0089 21.809 72.7692 21.1816 73.2925 20.3894C73.82 19.5913 74.0767 18.6846 74.0561 17.701C74.057 16.5539 73.7702 15.6516 73.2046 15.018Z" fill="#300C68"/>
<path d="M9.9392 37.5547C9.9392 38.0677 9.791 38.5066 9.4946 38.8714C9.2096 39.2362 8.822 39.5155 8.3318 39.7093C7.8416 39.9031 7.3058 40 6.7244 40H1.7654V30.5095H7.1348C7.6136 30.5095 8.0297 30.6292 8.3831 30.8686C8.7365 31.108 9.0044 31.4158 9.1868 31.792C9.3806 32.1568 9.4775 32.5387 9.4775 32.9377C9.4775 33.3937 9.3521 33.8269 9.1013 34.2373C8.8505 34.6363 8.4857 34.9327 8.0069 35.1265C8.5997 35.2861 9.0671 35.5768 9.4091 35.9986C9.7625 36.4204 9.9392 36.9391 9.9392 37.5547ZM8.2121 37.2298C8.2121 36.979 8.1494 36.7567 8.024 36.5629C7.8986 36.3577 7.7333 36.1924 7.5281 36.067C7.3229 35.9416 7.0892 35.8789 6.827 35.8789H3.4583V38.5465H6.7244C6.998 38.5465 7.2431 38.4895 7.4597 38.3755C7.6877 38.2501 7.8701 38.0905 8.0069 37.8967C8.1437 37.6915 8.2121 37.4692 8.2121 37.2298ZM3.4583 31.9972V34.528H6.4166C6.6788 34.528 6.9125 34.4767 7.1177 34.3741C7.3229 34.2715 7.4882 34.1233 7.6136 33.9295C7.739 33.7357 7.8017 33.5134 7.8017 33.2626C7.8017 33.0004 7.7447 32.7781 7.6307 32.5957C7.5167 32.4019 7.3628 32.2537 7.169 32.1511C6.9752 32.0485 6.7529 31.9972 6.5021 31.9972H3.4583ZM11.6123 40C11.6123 39.5212 11.6522 39.0823 11.732 38.6833C11.8118 38.2729 11.9486 37.8853 12.1424 37.5205C12.3476 37.1557 12.6269 36.8137 12.9803 36.4945C13.3451 36.1639 13.8068 35.8504 14.3654 35.554C14.7644 35.326 15.1406 35.1265 15.494 34.9555C15.8474 34.7731 16.1609 34.5964 16.4345 34.4254C16.7081 34.243 16.919 34.0492 17.0672 33.844C17.2268 33.6388 17.3066 33.4051 17.3066 33.1429C17.3066 32.8921 17.2382 32.6584 17.1014 32.4418C16.9646 32.2252 16.7594 32.0542 16.4858 31.9288C16.2122 31.792 15.8816 31.7236 15.494 31.7236C15.1862 31.7236 14.9012 31.7635 14.639 31.8433C14.3882 31.9231 14.1545 32.0314 13.9379 32.1682C13.7327 32.2936 13.5446 32.4361 13.3736 32.5957C13.2026 32.7439 13.0544 32.8921 12.929 33.0403L11.7491 31.6894C11.8631 31.5526 12.0398 31.3987 12.2792 31.2277C12.53 31.0453 12.8264 30.8686 13.1684 30.6976C13.5218 30.5152 13.9208 30.367 14.3654 30.253C14.81 30.1276 15.2945 30.0649 15.8189 30.0649C16.5599 30.0649 17.1926 30.1903 17.717 30.4411C18.2414 30.6805 18.6404 31.0168 18.914 31.45C19.199 31.8718 19.3415 32.3506 19.3415 32.8864C19.3415 33.3082 19.256 33.6787 19.085 33.9979C18.9254 34.3171 18.7145 34.6021 18.4523 34.8529C18.1901 35.0923 17.9108 35.3032 17.6144 35.4856C17.3294 35.6566 17.0615 35.8105 16.8107 35.9473C16.3661 36.1639 15.9785 36.3634 15.6479 36.5458C15.3287 36.7282 15.0551 36.9106 14.8271 37.093C14.5991 37.264 14.411 37.4464 14.2628 37.6402C14.1146 37.8226 13.9892 38.0449 13.8866 38.3071H19.5296V40H11.6123ZM30.0945 37.5547C30.0945 38.0677 29.9463 38.5066 29.6499 38.8714C29.3649 39.2362 28.9773 39.5155 28.4871 39.7093C27.9969 39.9031 27.4611 40 26.8797 40H21.9207V30.5095H27.2901C27.7689 30.5095 28.185 30.6292 28.5384 30.8686C28.8918 31.108 29.1597 31.4158 29.3421 31.792C29.5359 32.1568 29.6328 32.5387 29.6328 32.9377C29.6328 33.3937 29.5074 33.8269 29.2566 34.2373C29.0058 34.6363 28.641 34.9327 28.1622 35.1265C28.755 35.2861 29.2224 35.5768 29.5644 35.9986C29.9178 36.4204 30.0945 36.9391 30.0945 37.5547ZM28.3674 37.2298C28.3674 36.979 28.3047 36.7567 28.1793 36.5629C28.0539 36.3577 27.8886 36.1924 27.6834 36.067C27.4782 35.9416 27.2445 35.8789 26.9823 35.8789H23.6136V38.5465H26.8797C27.1533 38.5465 27.3984 38.4895 27.615 38.3755C27.843 38.2501 28.0254 38.0905 28.1622 37.8967C28.299 37.6915 28.3674 37.4692 28.3674 37.2298ZM23.6136 31.9972V34.528H26.5719C26.8341 34.528 27.0678 34.4767 27.273 34.3741C27.4782 34.2715 27.6435 34.1233 27.7689 33.9295C27.8943 33.7357 27.957 33.5134 27.957 33.2626C27.957 33.0004 27.9 32.7781 27.786 32.5957C27.672 32.4019 27.5181 32.2537 27.3243 32.1511C27.1305 32.0485 26.9082 31.9972 26.6574 31.9972H23.6136ZM32.1267 36.1696V34.4767H37.2396V36.1696H32.1267ZM39.7516 40V31.0567H41.701L44.779 36.58L47.8741 31.0567H49.7893V40H47.9938V33.7072L45.3604 38.4097H44.1805L41.53 33.7072V40H39.7516ZM51.7344 37.3837C51.7344 36.8137 51.894 36.3178 52.2132 35.896C52.5438 35.4628 52.9941 35.1322 53.5641 34.9042C54.1341 34.6648 54.7953 34.5451 55.5477 34.5451C55.9467 34.5451 56.3514 34.5736 56.7618 34.6306C57.1836 34.6876 57.5541 34.7788 57.8733 34.9042V34.3399C57.8733 33.7129 57.6852 33.2227 57.309 32.8693C56.9328 32.5159 56.3913 32.3392 55.6845 32.3392C55.1829 32.3392 54.7098 32.4304 54.2652 32.6128C53.8206 32.7838 53.3475 33.0289 52.8459 33.3481L52.2132 32.0827C52.806 31.6837 53.3988 31.3873 53.9916 31.1935C54.5958 30.9997 55.2285 30.9028 55.8897 30.9028C57.0867 30.9028 58.0272 31.222 58.7112 31.8604C59.4066 32.4874 59.7543 33.3823 59.7543 34.5451V37.8796C59.7543 38.0962 59.7885 38.2501 59.8569 38.3413C59.9367 38.4325 60.0678 38.4838 60.2502 38.4952V40C60.0792 40.0342 59.9253 40.057 59.7885 40.0684C59.6517 40.0798 59.5377 40.0855 59.4465 40.0855C59.0475 40.0855 58.7454 39.9886 58.5402 39.7948C58.335 39.601 58.2153 39.373 58.1811 39.1108L58.1298 38.5978C57.7422 39.0994 57.2463 39.487 56.6421 39.7606C56.0379 40.0342 55.428 40.171 54.8124 40.171C54.2196 40.171 53.6895 40.0513 53.2221 39.8119C52.7547 39.5611 52.3899 39.2248 52.1277 38.803C51.8655 38.3812 51.7344 37.9081 51.7344 37.3837ZM57.4287 37.9309C57.5655 37.7827 57.6738 37.6345 57.7536 37.4863C57.8334 37.3381 57.8733 37.207 57.8733 37.093V36.067C57.5541 35.9416 57.2178 35.8504 56.8644 35.7934C56.511 35.725 56.1633 35.6908 55.8213 35.6908C55.1373 35.6908 54.5787 35.8276 54.1455 36.1012C53.7237 36.3748 53.5128 36.751 53.5128 37.2298C53.5128 37.492 53.5812 37.7428 53.718 37.9822C53.8662 38.2216 54.0714 38.4154 54.3336 38.5636C54.6072 38.7118 54.9435 38.7859 55.3425 38.7859C55.7529 38.7859 56.1462 38.7061 56.5224 38.5465C56.8986 38.3869 57.2007 38.1817 57.4287 37.9309ZM67.4571 40.171C66.7389 40.171 66.1062 40 65.559 39.658C65.0118 39.316 64.5786 38.8714 64.2594 38.3242V43.6423H62.3784V31.0567H64.0371V32.6641C64.3791 32.1283 64.8237 31.7008 65.3709 31.3816C65.9181 31.0624 66.528 30.9028 67.2006 30.9028C67.8162 30.9028 68.3805 31.0282 68.8935 31.279C69.4065 31.5184 69.8511 31.8547 70.2273 32.2879C70.6035 32.7211 70.8942 33.217 71.0994 33.7756C71.316 34.3228 71.4243 34.9042 71.4243 35.5198C71.4243 36.3748 71.2533 37.1557 70.9113 37.8625C70.5807 38.5693 70.1133 39.1336 69.5091 39.5554C68.9163 39.9658 68.2323 40.171 67.4571 40.171ZM66.8415 38.5636C67.2405 38.5636 67.5996 38.4781 67.9188 38.3071C68.2494 38.1361 68.5287 37.9081 68.7567 37.6231C68.9961 37.3381 69.1785 37.0132 69.3039 36.6484C69.4293 36.2836 69.492 35.9074 69.492 35.5198C69.492 35.1094 69.4236 34.7218 69.2868 34.357C69.15 33.9922 68.9505 33.673 68.6883 33.3994C68.4375 33.1258 68.1411 32.9092 67.7991 32.7496C67.4685 32.59 67.1037 32.5102 66.7047 32.5102C66.4653 32.5102 66.2145 32.5558 65.9523 32.647C65.6901 32.7382 65.445 32.8636 65.217 33.0232C64.989 33.1828 64.7895 33.3709 64.6185 33.5875C64.4475 33.8041 64.3278 34.0321 64.2594 34.2715V36.6142C64.419 36.979 64.6299 37.3096 64.8921 37.606C65.1543 37.891 65.4564 38.1247 65.7984 38.3071C66.1404 38.4781 66.4881 38.5636 66.8415 38.5636ZM73.458 40V31.0567H75.3219V34.5964H76.2111L78.8445 31.0567H80.9307L77.6646 35.383L81.3069 40H79.1352L76.194 36.2893H75.3219V40H73.458ZM86.6698 40.171C85.9744 40.171 85.3417 40.0513 84.7717 39.8119C84.2131 39.5611 83.7286 39.2248 83.3182 38.803C82.9078 38.3698 82.5886 37.8796 82.3606 37.3324C82.144 36.7738 82.0357 36.181 82.0357 35.554C82.0357 34.7104 82.2295 33.9409 82.6171 33.2455C83.0047 32.5387 83.5462 31.9744 84.2416 31.5526C84.937 31.1194 85.7521 30.9028 86.6869 30.9028C87.6217 30.9028 88.4254 31.1194 89.098 31.5526C89.782 31.9744 90.3121 32.533 90.6883 33.2284C91.0645 33.9238 91.2526 34.6705 91.2526 35.4685C91.2526 35.6053 91.2469 35.7364 91.2355 35.8618C91.2241 35.9758 91.2127 36.0727 91.2013 36.1525H84.0364C84.0706 36.6769 84.2131 37.1386 84.4639 37.5376C84.7261 37.9252 85.0567 38.233 85.4557 38.461C85.8547 38.6776 86.2822 38.7859 86.7382 38.7859C87.2398 38.7859 87.7129 38.6605 88.1575 38.4097C88.6135 38.1589 88.9213 37.8283 89.0809 37.4179L90.6883 37.8796C90.4945 38.3128 90.1981 38.7061 89.7991 39.0595C89.4115 39.4015 88.9498 39.6751 88.414 39.8803C87.8782 40.0741 87.2968 40.171 86.6698 40.171ZM83.9851 34.9042H89.3887C89.3545 34.3912 89.2063 33.9409 88.9441 33.5533C88.6933 33.1543 88.3684 32.8465 87.9694 32.6299C87.5818 32.4019 87.1486 32.2879 86.6698 32.2879C86.2024 32.2879 85.7692 32.4019 85.3702 32.6299C84.9826 32.8465 84.6634 33.1543 84.4126 33.5533C84.1618 33.9409 84.0193 34.3912 83.9851 34.9042ZM95.2494 40V32.7154H92.2911V31.0567H100.106V32.7154H97.1304V40H95.2494ZM101.854 40V31.0567H109.549V40H107.668V32.7154H103.735V40H101.854ZM111.447 40.0855V38.4097C111.732 38.4097 111.989 38.3413 112.217 38.2045C112.445 38.0563 112.644 37.8169 112.815 37.4863C112.986 37.1443 113.123 36.6712 113.226 36.067C113.328 35.4628 113.397 34.6933 113.431 33.7585L113.551 31.0567H119.929V40H118.048V32.7154H115.209L115.175 33.9295C115.129 35.1265 115.021 36.124 114.85 36.922C114.679 37.7086 114.44 38.3356 114.132 38.803C113.836 39.259 113.459 39.5896 113.003 39.7948C112.559 39.9886 112.04 40.0855 111.447 40.0855ZM126.58 40.171C125.884 40.171 125.252 40.0513 124.682 39.8119C124.123 39.5611 123.638 39.2248 123.228 38.803C122.818 38.3698 122.498 37.8796 122.27 37.3324C122.054 36.7738 121.946 36.181 121.946 35.554C121.946 34.7104 122.139 33.9409 122.527 33.2455C122.915 32.5387 123.456 31.9744 124.151 31.5526C124.847 31.1194 125.662 30.9028 126.597 30.9028C127.532 30.9028 128.335 31.1194 129.008 31.5526C129.692 31.9744 130.222 32.533 130.598 33.2284C130.974 33.9238 131.162 34.6705 131.162 35.4685C131.162 35.6053 131.157 35.7364 131.145 35.8618C131.134 35.9758 131.123 36.0727 131.111 36.1525H123.946C123.98 36.6769 124.123 37.1386 124.374 37.5376C124.636 37.9252 124.967 38.233 125.366 38.461C125.765 38.6776 126.192 38.7859 126.648 38.7859C127.15 38.7859 127.623 38.6605 128.067 38.4097C128.523 38.1589 128.831 37.8283 128.991 37.4179L130.598 37.8796C130.404 38.3128 130.108 38.7061 129.709 39.0595C129.321 39.4015 128.86 39.6751 128.324 39.8803C127.788 40.0741 127.207 40.171 126.58 40.171ZM123.895 34.9042H129.299C129.264 34.3912 129.116 33.9409 128.854 33.5533C128.603 33.1543 128.278 32.8465 127.879 32.6299C127.492 32.4019 127.058 32.2879 126.58 32.2879C126.112 32.2879 125.679 32.4019 125.28 32.6299C124.892 32.8465 124.573 33.1543 124.322 33.5533C124.072 33.9409 123.929 34.3912 123.895 34.9042ZM133.039 40V31.0738H134.92V37.4863L139.451 31.0567H141.161V40H139.28V33.7243L134.8 40H133.039ZM137.109 30.1333C136.265 30.1333 135.609 29.9224 135.142 29.5006C134.686 29.0788 134.458 28.5487 134.458 27.9103H135.689C135.689 28.2409 135.798 28.5145 136.014 28.7311C136.242 28.9477 136.607 29.056 137.109 29.056C137.599 29.056 137.946 28.9534 138.152 28.7482C138.368 28.543 138.499 28.2637 138.545 27.9103H139.776C139.776 28.5487 139.542 29.0788 139.075 29.5006C138.619 29.9224 137.964 30.1333 137.109 30.1333ZM147.804 40.171C147.108 40.171 146.476 40.0513 145.906 39.8119C145.347 39.5611 144.862 39.2191 144.452 38.7859C144.042 38.3527 143.722 37.8568 143.494 37.2982C143.278 36.7396 143.17 36.1468 143.17 35.5198C143.17 34.6762 143.358 33.9067 143.734 33.2113C144.121 32.5159 144.657 31.9573 145.341 31.5355C146.037 31.1137 146.857 30.9028 147.804 30.9028C148.716 30.9028 149.508 31.108 150.181 31.5184C150.865 31.9174 151.366 32.4532 151.685 33.1258L149.856 33.7072C149.65 33.331 149.36 33.0403 148.984 32.8351C148.619 32.6185 148.214 32.5102 147.769 32.5102C147.268 32.5102 146.812 32.6413 146.401 32.9035C146.002 33.1543 145.683 33.5077 145.444 33.9637C145.216 34.4083 145.102 34.927 145.102 35.5198C145.102 36.0898 145.222 36.6085 145.461 37.0759C145.7 37.5319 146.02 37.8967 146.419 38.1703C146.829 38.4325 147.285 38.5636 147.787 38.5636C148.094 38.5636 148.391 38.5123 148.676 38.4097C148.972 38.2957 149.229 38.1475 149.445 37.9651C149.662 37.7713 149.816 37.5604 149.907 37.3324L151.754 37.8796C151.56 38.3242 151.269 38.7175 150.882 39.0595C150.505 39.4015 150.055 39.6751 149.531 39.8803C149.018 40.0741 148.442 40.171 147.804 40.171Z" fill="url(#paint2_linear_902_1512)"/>
<defs>
<linearGradient id="paint0_linear_902_1512" x1="-4.5" y1="28" x2="15.2735" y2="6.16266" gradientUnits="userSpaceOnUse">
<stop stop-color="#4146BD"/>
<stop offset="1" stop-color="#FF00D0"/>
</linearGradient>
<linearGradient id="paint1_linear_902_1512" x1="95.0558" y1="5.65785" x2="80.844" y2="22.8004" gradientUnits="userSpaceOnUse">
<stop stop-color="#FFC300"/>
<stop offset="1" stop-color="#FF0091"/>
</linearGradient>
<linearGradient id="paint2_linear_902_1512" x1="0.5" y1="32" x2="153.5" y2="32" gradientUnits="userSpaceOnUse">
<stop stop-color="#4146BD"/>
<stop offset="0.518" stop-color="#FF00D0"/>
<stop offset="1" stop-color="#FF7A00"/>
</linearGradient>
</defs>
</svg>
